<?xml version="1.0" encoding="UTF-8"?><svg id="Layer_2" xmlns="http://www.w3.org/2000/svg" viewBox="0 0 1398.92 492.75"><g id="Layer_2-2"><path d="M464.33,24.7s-48.94,23.66-101.44,105.33c-16.53,32.41-28.2,58.66-28.2,58.66,0,0-14.58,41.48-65.47,92.69-27.87,26.58-51.53,39.86-51.53,39.86,0,0-34.03,19.12-57.69,23.98s-80.11,14.15-130.93-29.82C.92,289.7-8.85,246.06,8.97,199.39c11.34-23.98,27.55-64.82,79.73-93.66,52.18-28.84,91.39-25.6,104.68-24.31s38.57,10.05,52.18,28.84c13.61,18.8,19.34,46.94,5.19,84.26-14.16,37.32-30.31,60.39-67.14,88.37-67.2,47.21-162.05-5.83-105.6-87.72,15.5-19.23,18.1-24.42,37.6-43.1,18.15-15.88,27.36-20.63,32.09-22.36,7.94-2.92,11.79-1.58,13.13,2.43,1.62,4.86-1.21,9.93-5.83,12.64-4.7,2.75-8.91.47-10.54-2.1-3.89,1.94-12.32,7.45-21.71,16.2-9.4,8.75-43.7,39.86-46.67,67.09-5.02,45.37,35.6,58.12,56.77,55.53s87.72-19.34,109.98-113c7.56-43.1-13.34-68.33-42.94-76.38-29.61-8.05-90.48,3.57-128.88,42.56-38.41,39-48.88,74.65-54.56,93.88-23.39,104.9,113.07,144.67,180.48,75.31,67.41-69.36,75.88-95.41,82.69-107.4,6.48-12.96,49.26-82.32,56.07-88.8,6.81-6.48,58.99-66.12,70.33-74.22s22.36-13.29,30.46-14.26c8.1-.97,16.53.32,20.09,1.3,3.57.97,7.78,4.21,7.78,4.21Z"/><path d="M269.1,179.74c3.13,7.02,6.76,29.8,88.43,20.72,53.8-7.62,57.89-12.98,109.06-19.28,51.17-6.3,60.86-4.34,56.36-8.57-7.45-7.45-29.94-7.47-40.64-6.99-10.7.49-47.97,5.83-73.73,12.96-25.77,7.13-89.09,17.97-109.54,6.64-14.7-.41-32.96-16.62-29.93-5.49Z"/><path d="M484.74,65.15s-36.62,46.02-48.29,71.95c-13.23,23.99-51.95,121.59-96.26,169.42-43.43,47.48-68.17,25.85-68.38,20.17s4.21-10.53,16.2-12.64c32.25-4.29,70.33,21.07,116.67,12.64,46.35-8.43,100.61-51,100.61-51l-6.38-20.35s-49.7,40.83-75.95,48.61-55.56,11.41-94.45.06c-38.89-11.34-66.76-3.24-73.25,15.88-6.48,19.12,17.5,26.58,17.5,26.58,0,0,29.17,10.7,59.96-9.07,66.44-38.89,110.19-116.03,138.71-171.45,28.52-55.42,54.26-111,102.09-136.44,35.46-17.34,64.49-9.72,75.19,4.54,10.7,14.26,8.75,40.19-5.83,51.53-14.58,11.34-30.67,9.92-38.89,14.26-8.22,4.34-6.81,10.05-4.86,12.64s9.12,8.07,29.21,1.42c11.83-3.91,42.87-24.27,40.93-57-.65-24.31-10.83-52.02-56.85-56.55-46.02-4.54-105.65,37.92-127.69,64.82Z"/><path d="M346.11,99.35s-65.47,47.32-112.46,71.63c-46.99,24.31-132.01,69.18-174.36-5.83C16.92,90.13,99.91,37.26,130.58,27.07c30.67-10.19,83.62-11.34,101.44,30.14,14.26,40.51-10.54,54.38-15.54,58.63-6.36,5.4-16.57,4.44-16.88.72-2.05-6.72,4.1-11.05,10.83-10.44,1.24.53,16.2-14.37,9.6-34.64-2.79-6.73-19.78-47.46-74.55-31.26-54.77,16.2-111.8,73.71-59.3,126.22,36.62,29.82,93.34,24.31,171.77-22.04,74.87-47.32,130.93-106.63,153.3-112.14,22.36-5.51-65.14,67.09-65.14,67.09Z"/><path d="M328.57,413.22c.1-.6.29-1.21.28-1.81-.03-8.65-.02-17.3-.17-25.94-.08-4.58-1.32-5.9-5.66-6.62-1.23-.2-2.38-.3-2.21-2.12.18-1.82,1.39-1.96,2.69-1.91,3.45.15,6.9.41,10.35.49,1.28.03,2.56-.4,3.85-.48,1.25-.08,1.97.69,2.1,1.97.15,1.38-.75,1.72-1.82,1.95-3.96.85-4.4,1.33-4.92,5.56-.18,1.48-.26,2.98-.26,4.47-.02,16.2,0,32.39-.03,48.59,0,1.16-.08,2.36-.39,3.46-.59,2.11-2.55,2.63-4.06,1.08-.83-.85-1.5-1.9-2.13-2.94-9.67-15.96-19.33-31.93-29-47.88-.41-.67-.92-1.27-1.84-1.75-.05.67-.15,1.34-.15,2.02,0,11.58-.02,23.16,0,34.74,0,1.49.16,2.98.33,4.46.43,3.86,1.66,5.12,5.29,5.46,1.23.12,2.69-.07,2.53,1.94-.14,1.84-1.45,2.04-2.85,2-3.7-.11-7.4-.27-11.09-.34-1.04-.02-2.08.3-3.13.32-1.27.02-1.89-.76-1.95-2.09-.06-1.26.57-1.64,1.66-1.82,3.97-.67,5.05-1.8,5.07-6.02.08-15.53.04-31.07.03-46.6,0-2.62-1.33-4.47-3.89-4.4-1.24.03-2.29-.42-2.16-2.19.14-1.78,1.22-1.86,2.48-1.84,4.7.07,9.4.23,14.1.16,1.78-.03,2.87.63,3.8,2.15,6.86,11.21,13.77,22.39,20.67,33.57.55.89,1.19,1.73,1.78,2.59l.65-.21Z"/><path d="M583.23,412.62c.47-.08.7-.04.81-.15,3.54-3.54,7.18-6.98,10.54-10.7,1.88-2.08,1.39-3.26-1.17-4.22-.46-.17-1.07-.21-1.37-.54-.49-.54-1.03-1.27-1.04-1.93,0-.37,1-1.08,1.55-1.09,1.85-.02,3.71.33,5.56.3,3.77-.05,7.53-.27,11.3-.4.91-.03,1.94-.25,2.17,1.16.23,1.39-.43,2.09-1.65,2.3-5.98,1.04-10.21,4.97-14.2,9.34-.89.97-.92,1.9-.28,2.96,4.63,7.69,9.17,15.44,13.95,23.03.96,1.53,2.72,2.57,4.27,3.6,1.03.68,1.64,1.35,1.38,2.63-.29,1.45-1.44,1.27-2.38,1.17-5.07-.53-10.11-.7-15.18.21-2.81.5-3.6-.95-2.52-3.69.35-.88.43-2.26,0-3.03-2.81-5.05-5.79-9.99-8.74-14.95-.29-.48-.75-.87-1.2-1.21-1.01-.77-1.74-.39-1.75.84-.04,4.81-.08,9.63.09,14.43.08,2.2,1.15,3.12,3.37,3.37,1.59.18,1.88,1.13,1.8,2.56-.1,1.67-1.2,1.4-2.16,1.26-6.3-.95-12.59-.95-18.88.02-1.11.17-2.31.29-2.52-1.44-.2-1.62.64-2.19,2.01-2.39,3.03-.44,3.98-1.52,3.99-4.72.03-16.06.03-32.13.01-48.19,0-3.54-.74-4.45-3.85-5.81-.64-.28-1.5-1.28-1.42-1.81.11-.75.87-1.73,1.57-2,1.79-.68,3.74-.88,5.55-1.54,2.5-.92,4.96-1.99,7.37-3.16,2.43-1.17,3.13-.8,3.12,2.04-.02,13.14-.05,26.27-.08,39.41,0,.74,0,1.49,0,2.32Z"/><path d="M421.64,423.84c.34-.89.62-1.51.82-2.15,1.66-5.37,3.31-10.74,4.94-16.12.24-.8.46-1.62.58-2.45.47-3.25-.08-4.15-3.04-5.19-.35-.12-.86-.15-1.02-.41-.44-.74-.98-1.58-.99-2.39,0-.4,1.09-1.14,1.69-1.15,4.39-.05,8.78.02,13.17.14.54.02,1.55.66,1.52.87-.13.86-.43,2.23-.95,2.39-3.52,1.08-4.86,4.05-5.96,7.19-3.84,11.03-7.62,22.09-11.42,33.13-.27.79-.43,1.7-.91,2.33-.49.64-1.31,1.37-1.98,1.36-.76,0-1.83-.6-2.21-1.28-.83-1.5-1.33-3.2-1.93-4.84-2.31-6.37-4.6-12.75-6.9-19.12-.19-.54-.44-1.06-.85-2.03-.38.92-.64,1.45-.83,2.01-2.5,7.4-4.97,14.81-7.51,22.2-.46,1.33-.59,3.15-2.52,3.14-1.88-.02-2.35-1.68-2.85-3.14-4.04-11.58-8.06-23.16-12.08-34.75-1.01-2.9-2.2-5.5-5.62-6.04-.54-.09-1.3-1.6-1.22-2.37.17-1.59,1.62-1.27,2.7-1.24,6.5.16,13,.47,19.5.49,6.75.02,13.5-.24,20.25-.33.95-.01,2.22-.44,2.41,1.31.18,1.65-.75,2.11-2.03,2.43-2.21.56-2.68,1.22-2.03,3.41,2.19,7.31,4.5,14.58,6.76,21.86.05.17.21.31.51.73ZM399.15,423.66c.43-.63.76-.95.89-1.34,1.26-3.8,2.58-7.58,3.66-11.44.33-1.17.11-2.58-.14-3.82-.27-1.39-.85-2.71-1.32-4.05-1.59-4.55-2.84-5.42-7.48-5.2-2.74.13-3.37,1.06-2.53,3.88,1.98,6.62,4,13.24,6.01,19.85.2.64.52,1.25.89,2.12Z"/><path d="M483.01,403.18c.57-.85.98-1.33,1.25-1.88,2.22-4.5,4.45-8.99,6.58-13.54.59-1.26.95-2.68,1.23-4.06.39-1.93-.41-3.27-2.21-3.92-.64-.23-1.27-.51-1.91-.74-1.2-.44-1.8-1.43-1.35-2.56.27-.68,1.26-1.34,1.99-1.44,1.33-.17,2.71.15,4.07.15,3.02,0,6.05-.07,9.07-.14,1.29-.03,2.77-.49,3.27,1.32.49,1.79-.86,2.34-2.04,3.18-1.64,1.17-3.45,2.48-4.43,4.21-3.91,6.92-7.42,14.1-11.3,21.04-1.89,3.39-2.74,6.81-2.56,10.73.22,4.93.05,9.88.05,14.83,0,3.89.68,4.81,4.27,5.53,1.32.26,2.43.46,2.12,2.36-.3,1.85-1.51,1.89-2.79,1.68-6.73-1.08-13.45-1.05-20.17.02-1.36.22-2.64-.08-2.73-1.77-.04-.67.64-1.48,1.17-2.06.29-.32.92-.29,1.41-.41,2.76-.63,3.58-1.55,3.61-4.53.06-5.53.07-11.06-.02-16.59-.02-1.19-.29-2.5-.82-3.55-4.65-9.17-9.42-18.28-14.08-27.46-1.15-2.26-2.74-3.83-5.02-4.63-1.37-.48-1.63-1.49-1.37-2.75.3-1.42,1.38-1.52,2.49-1.34,6.92,1.08,13.83.9,20.74,0,2.49-.32,3.5.27,3.3,2.03-.08.71-.62,1.49-1.17,1.97-.54.48-1.34.65-2.04.9-1.59.56-2.02,1.68-1.3,3.2,1.07,2.27,2.22,4.49,3.37,6.72,2.07,3.99,4.17,7.97,6.27,11.95.23.43.54.82,1.06,1.57Z"/><path d="M492.32,417.07c.13-7.51,2.01-14.26,7.34-19.58,9.19-9.15,30.9-8.28,35.16,11.78,1.18,5.53,1.23,11.09-.28,16.58-2.71,9.85-10.21,15.72-20.01,16.1-12.96.5-20.36-8.92-21.75-19.85-.21-1.67-.32-3.35-.48-5.03ZM523.29,420.14c-.43-4.49-.62-7.93-1.13-11.32-.57-3.81-1.66-7.48-4.12-10.49-2.83-3.46-7-3.43-9.46.3-1.23,1.87-2.23,4.11-2.67,6.33-1.44,7.26-1.21,14.58.25,21.83.7,3.47,1.87,6.75,4.32,9.31,2.6,2.73,6.08,2.7,8.48-.23,1.06-1.29,2.07-2.89,2.43-4.51.89-4.01,1.4-8.12,1.9-11.22Z"/><path d="M363.98,411.85c-3.28,0-6.57.01-9.85,0-1.11,0-2.05.24-2.11,1.61-.23,5.8.2,11.45,3.83,16.26,4.22,5.6,11.36,6.43,16.61,1.89.62-.54,1.13-1.28,1.83-1.63.63-.31,1.71-.54,2.1-.19.42.38.58,1.59.32,2.2-.49,1.16-1.22,2.29-2.09,3.17-5.84,5.85-12.72,8.27-20.63,5.94-7.88-2.32-12.2-8.41-14.02-16.42-1.86-8.18-1.2-16.17,3.31-23.41,4.95-7.93,15.26-11.42,23.63-8.14,6.14,2.4,10.2,8.51,10.17,15.32-.01,2.5-.8,3.37-3.25,3.4-3.28.04-6.57,0-9.85.01ZM357.29,407.98c0,.06.01.12.02.18,1.83-.21,3.68-.32,5.5-.64,1.71-.3,2.89-1.38,3.35-3.21.65-2.61-.48-5.99-2.5-7.47-2.05-1.5-4.94-1.28-7.25.54-3.03,2.39-3.53,5.92-3.8,9.51-.02.33.73.99,1.17,1.05,1.16.15,2.34.05,3.51.05Z"/><path d="M553.16,398.91c.53-.65,1.08-1.3,1.6-1.96,2.1-2.68,4.58-4.63,8.11-4.13,4.4.63,6.82,4.99,5.74,10.24-.56,2.74-1.9,4.79-4.63,5.5-2.74.71-4.65-.67-6.21-2.84-.45-.62-.87-1.27-1.34-1.87-1.2-1.51-2.35-1.3-2.94.61-.26.85-.38,1.78-.38,2.68-.03,8.06-.03,16.12,0,24.19,0,3.42.76,4.28,4.02,4.78,1.39.21,2.13.92,1.94,2.48-.2,1.66-1.35,1.46-2.39,1.31-6.42-.95-12.83-.97-19.25,0-1.11.17-2.32.33-2.58-1.36-.27-1.74.72-2.26,2.13-2.46,2.82-.39,3.83-1.5,3.84-4.44.03-8,.03-15.99-.03-23.99-.02-3.24-.53-3.77-3.49-4.47-.88-.21-2.14-.27-1.91-1.56.15-.84.94-2.01,1.65-2.21,4.93-1.37,9.07-4.05,12.66-7.79.47-.49,1.53-.77,2.14-.57.44.15.78,1.25.83,1.95.11,1.91.04,3.83.04,5.75.16.06.31.12.47.18Z"/></g><g id="Layer_1-2"><path d="M617.63,247.43c-6.59,9.47-14.82,20.58-24.7,30.05-9.88,9.06-21.41,16.05-34.17,16.88,10.7-17.29,15.64-33.75,15.64-46.1,0-10.7-3.7-18.52-10.7-22.23-17.29-9.47-55.98,14-80.68,48.57-13.17,18.52-19.35,36.64-19.35,50.22,0,11.94,4.53,20.99,13.17,24.29,17.7,7,48.16-7.82,74.51-44.05,1.65-1.65,2.47-3.29,3.7-5.35h2.47c20.99-.41,39.52-19.35,46.1-25.93,8.64-9.47,18.94-23.46,20.17-26.76.82-1.23-3.29-3.29-6.17.41ZM545.59,292.71c-.77-.24-1.55-.23-2.28-.5-.84,1.75-1.3,3.05-1.91,4.79.36.16.52.5.9.64-.41.82-.82,1.23-1.23,2.06-18.52,27.99-46.52,52.69-58.04,46.93-11.11-6.17,6.17-40.34,25.11-67.51,21.82-30.46,42.81-55.57,55.16-48.57,11.53,6.59-1.24,35.81-17.7,62.16Z"/><path d="M702.83,308.76c-16.47,18.11-45.28,47.34-61.75,41.16-9.06-3.29-13.58-10.7-13.58-20.58,0-8.64,3.7-18.93,10.7-29.64,14.82-22.23,50.63-63.39,44.87-67.51-5.76-4.53-40.34,21.82-66.27,52.28-15.64,18.52-37.46,55.16-39.11,58.45-2.06,3.29-4.12,4.53-6.17,3.29-2.06-1.23-10.7-2.47-15.23-.41-4.94,2.06-4.94,0-2.47-4.94,2.47-4.94,63.39-100.03,69.57-109.08.82-1.65,3.29-3.29,7-2.06,3.7.82,9.88.41,15.23-1.23,4.94-1.65,4.53,1.23,2.88,4.12-2.06,2.88-16.47,25.93-18.52,29.64-.82,1.23-.82,1.65-.41,1.65s2.06-1.65,3.29-2.88c2.47-2.47,18.52-16.88,29.23-24.29,10.7-7.41,29.23-16.47,37.87-9.47,10.29,8.23-2.88,31.28-11.11,41.16-8.64,9.88-33.75,44.87-39.93,54.75-6.17,9.47-9.88,19.76-2.88,22.23,8.64,2.88,34.99-22.23,51.45-39.93,16.05-17.7,41.99-48.16,47.34-55.98,4.12-6.59,9.06-2.06,6.59,1.65-5.76,8.64-32.52,40.34-48.57,57.63Z"/><path d="M794.21,303.41c-19.76,19.76-60.1,52.69-82.33,45.28-11.11-4.12-17.7-13.58-17.7-26.34s6.17-27.58,18.94-44.46c26.76-34.58,67.51-60.92,86.86-51.87,5.76,2.47,8.23,7.41,8.23,13.17,0,11.11-9.47,25.52-22.23,35.4-14.82,11.53-39.52,22.23-58.04,23.05-12.35,21.82-18.52,39.93-11.53,44.87,8.64,6.17,43.22-13.17,74.92-45.28,29.23-29.64,41.16-48.16,43.22-50.22.82-.82,2.47-1.23,3.7-.82,2.06.82,3.7,2.06,2.47,3.7-2.06,2.47-26.34,33.34-46.52,53.51ZM740.29,278.3c-3.29,4.53-6.17,9.06-8.64,13.58,18.11,0,37.87-17.29,49.81-29.23,10.29-10.29,22.23-26.34,14.82-31.7-7.41-5.35-35.81,17.7-55.98,47.34Z"/><path d="M744.4,414.14c13.38-9.76,36.93-20.16,60.87-30.92,2.69-3.11,5.21-6.36,7.54-9.74-31.84,14-64.45,27.21-83.64,46.01-8.38,8.1-14.12,16.8-16.79,25.11,2.29-1.02,4.7-1.58,7.17-1.83,3.76-9.02,12.31-19.33,24.85-28.63Z"/><path d="M964.63,246.61c-2.06,0-5.35,1.23-6.17,2.47-1.65,1.65-18.52,24.7-29.23,37.05-10.7,12.35-30.87,33.34-47.34,46.93-11.11,9.47-21.4,16.88-37.46,25.52,7.41-14.82,15.64-30.05,25.11-44.04,21.99-34.41,54.35-70.01,63.94-80.26,1.14-1.53,2.4-2.97,3.63-4.43.03-.04.06-.08.08-.12.4-1.72-1.06-3.28-5.09-2.04-4.94,2.06-16.05,1.23-18.93.41-2.88-1.23-3.7,1.24-6.17,3.7-.82,1.23-16.47,30.87-37.05,58.45-18.93,25.11-51.87,60.1-62.16,53.92-8.64-4.94,7.41-30.46,24.29-55.57,16.36-23.75,33.81-51.55,37.39-56.22,0,0,0,0,0-.01.03-.04.06-.08.09-.11.2-.28.35-.58.52-.88.09-.17.19-.33.3-.48.03-.05.08-.1.11-.15.49-1.83-1.22-3.67-4.66-2.64-3.7,1.24-14.41,1.24-16.47,0-2.06-1.23-3.7,0-6.17,2.88-2.47,2.88-24.29,31.28-36.64,52.28-9.88,17.29-16.05,32.93-16.05,45.28,0,9.06,3.29,15.64,10.7,19.76,15.23,7.82,35.81-11.11,54.75-31.7-10.7,17.7-21.82,35.81-33.76,52.69l-4.53,2.06c-1.62.72-3.24,1.43-4.86,2.15-2.33,3.39-4.85,6.64-7.54,9.74,3.31-1.49,6.63-2.98,9.93-4.48-11.11,15.64-22.23,29.64-32.52,41.58-25.11,30.05-48.98,52.28-60.92,41.99-5.08-4.3-5.61-11.38-2.21-19.53-2.47.25-4.88.81-7.17,1.83-1.13,3.52-1.73,6.98-1.73,10.29,0,7.41,2.88,14.41,9.06,20.17,5.35,4.94,11.94,6.59,18.94,6.59,11.11,0,22.23-4.53,28.4-8.23,10.29-6.59,28.4-23.46,43.63-48.57,8.64-14,17.7-34.58,29.23-57.22,7-3.29,13.58-7,19.35-10.29,32.52-19.35,56.81-48.98,72.04-65.04,14.82-16.05,29.23-34.58,33.75-41.16,2.06-3.29,1.24-4.12-.41-4.53Z"/><path d="M1121.46,166.34c-19.76,20.58-75.74,78.62-89.33,91.8-32.11,49.81-48.16,77.8-41.58,83.97,6.17,5.76,29.23-14,47.75-32.11,23.87-23.46,50.22-58.04,53.51-61.75,2.06-2.47,4.94-2.47,5.76-.82.41.82.41,2.47-1.24,4.53-4.12,4.94-29.23,36.64-47.75,56.39-12.76,13.58-48.57,49.4-64.22,42.81-7-2.88-11.11-8.23-11.11-17.29,0-5.35,1.65-12.35,4.94-20.58-3.7,4.12-7,7.41-9.47,9.88-12.35,12.76-30.87,31.7-44.46,25.93-7-2.88-13.17-11.94-13.17-25.11s5.35-29.23,20.17-48.98c27.58-36.64,63.8-55.98,79.86-47.34,6.17,3.29,9.06,8.23,10.29,13.58,4.53-6.17,9.47-12.35,14.41-18.93,58.45-75.74,113.61-147.37,133.37-138.72,19.76,9.06-25.93,59.69-47.75,82.74ZM1009.9,233.02c-9.47-6.17-29.64,13.17-54.75,49.4-25.11,35.81-31.7,58.04-24.29,62.16,7,3.7,33.75-22.23,53.51-45.69,6.59-11.94,15.23-26.76,27.58-44.04,3.29-10.29,3.29-18.52-2.06-21.82ZM1058.48,217.79c-2.47,3.7-4.94,7.82-7.82,11.53,15.64-14.41,42.81-41.16,66.69-69.57,31.7-38.28,44.04-61.75,37.46-65.04-7-3.7-47.34,48.57-96.32,123.08Z"/><path d="M1146.15,312.06c-16.88,16.88-43.63,43.63-62.98,34.99-8.23-3.29-11.11-9.88-11.11-17.7,0-11.53,6.59-25.52,13.58-35.81,12.35-17.29,36.22-43.22,31.7-46.52-4.53-3.29-20.99,9.47-27.58,5.35-6.59-3.7-3.29-15.23,4.12-27.17,6.17-10.29,17.29-21.41,22.64-18.94,5.35,2.47,3.29,12.76-1.24,18.94-4.12,5.76-7.82,10.7-6.59,12.76.82,1.23,10.29-2.88,17.29-5.76,7.41-3.7,17.29-7.41,23.05-2.88,5.35,4.12,3.29,17.29-6.59,29.64-9.88,12.35-34.99,44.87-44.05,58.04-8.64,12.76-13.17,21.82-7.41,25.11,9.47,5.35,37.05-17.7,63.39-47.75,26.34-30.46,36.22-44.46,38.69-46.93,2.06-2.88,8.23-.41,4.12,4.53-4.12,4.94-34.58,42.81-51.04,60.1Z"/><path d="M1216.54,311.23c-20.58,22.23-43.22,45.69-60.1,37.05-7.41-4.12-10.7-10.7-10.7-19.76,0-12.35,6.17-27.99,16.05-45.28,12.35-20.99,34.58-49.4,37.05-52.28,2.06-2.88,3.7-4.12,5.76-2.88,2.06,1.24,12.76,1.24,16.88,0,3.7-1.23,5.35,1.65,3.7,3.7-1.65,2.06-20.58,31.7-37.46,56.81-17.29,25.11-32.93,50.22-24.7,55.57,8.64,4.94,30.46-17.29,48.57-36.22,18.52-19.35,49.4-58.04,51.04-60.51.82-1.23,2.88-1.65,4.53-.82,1.65.41,2.47,2.47.41,5.35-2.47,3.29-30.87,37.05-51.04,59.28ZM1247.41,186.51c-8.23,0-13.58-7.41-11.53-16.47,2.47-9.06,10.7-16.47,18.94-16.47,8.64,0,13.58,7.41,11.52,16.47-2.06,9.06-10.7,16.47-18.93,16.47Z"/><path d="M1398.78,189.78c-.78-1.67-2.4-2.94-4.07-1.75-2.51,1.58-39.87,29.87-57.56,45.49-7.65,7.1-18.2,16.43-27.09,26.25,1.99,2.21,2.39,5,2.69,7.82,6.71-8.28,16.42-18.43,29.66-30.24,20.22-18.02,53.4-43.53,55.49-44.71.84-.8,1.29-2.03.9-2.86Z"/><path d="M1365.27,226.53c-13.58-5.76-32.11,13.17-44.46,25.93-2.47,2.47-5.76,5.76-9.47,9.88,3.29-8.23,4.94-15.23,4.94-20.58,0-9.06-4.12-14.41-11.11-17.29-9.66-4.07-28.76,11.23-43.63,24.29,1.69,1.49,4.98,1.18,6.17,2.89,13.86-12.06,26.86-22.25,31.28-18.13,6.59,6.17-9.47,34.17-41.58,83.97-13.58,13.17-69.57,71.21-89.33,91.8-21.82,23.05-67.51,73.68-47.75,82.74,19.76,8.64,74.92-62.98,133.37-138.72,4.94-6.59,9.88-12.76,14.41-18.93,1.23,5.35,4.12,10.29,10.29,13.58,16.05,8.64,52.28-10.7,79.86-47.34,14.82-19.76,20.17-36.22,20.17-48.98s-6.17-22.23-13.17-25.11ZM1231.07,357.84c-48.98,74.51-89.33,126.78-96.32,123.08-6.59-3.29,5.76-26.76,37.46-65.04,23.88-28.4,51.04-55.16,66.69-69.57-2.88,3.7-5.35,7.82-7.82,11.53ZM1334.39,293.22c-25.11,36.22-45.28,55.57-54.75,49.4-5.35-3.29-5.35-11.53-2.06-21.82,12.35-17.29,20.99-32.11,27.58-44.04,19.76-23.46,46.52-49.4,53.51-45.69,7.41,4.12.82,26.34-24.29,62.16Z"/><path d="M535.92,285.86c-2.47-4.94-.81-7.1.42-7.92,1.65-1.65,3.24.11,6.92,0,5.28-.62,9.27-3.3,9.68-9.48-.16-5.24-4.78-8.97-10.03-8.13-7.4.94-12.76,8.23-12.35,17.29,0,7.54,3.08,16.22,12.91,20.52.62-1.75,1.3-3.49,2.14-5.24-4.35-1.62-7.93-3.88-9.7-7.06Z"/><path d="M650.79,228.7c1.79-3.15,3.32-4.21,2.38-5.36-1.52-.27-2.47.8-4.4,3.72-.96,1.46-2.86,1.95-4.53,2.17,1.43,1.04,2.99,1.9,4.57,2.65.96-1.49,1.66-2.61,1.98-3.18Z"/><path d="M870.08,231.37s0,0,0,0c.09-.17.19-.33.3-.48.02-.02.04-.05.06-.07.51-.81.9-1.45,1.12-1.83,1.79-3.15,3.32-4.21,2.38-5.36-1.52-.27-2.47.8-4.4,3.72-.96,1.46-2.86,1.95-4.53,2.17,1.43,1.04,2.99,1.9,4.57,2.65.18-.28.34-.54.51-.79Z"/><path d="M937.08,229.88c.75-1.18,1.31-2.08,1.59-2.57,1.79-3.15,3.32-4.21,2.38-5.36-1.52-.27-2.46.8-4.4,3.72-.96,1.46-2.86,1.95-4.53,2.17,1.4,1.02,2.93,1.86,4.48,2.6.16-.19.32-.38.48-.57Z"/><path d="M1225.96,230.5s0,0,0,0c.09-.17.19-.33.3-.48.02-.02.04-.05.06-.07.51-.81.9-1.45,1.12-1.83,1.79-3.15,3.32-4.21,2.38-5.36-1.52-.27-2.47.8-4.4,3.72-.96,1.46-2.86,1.95-4.53,2.17,1.43,1.04,2.99,1.9,4.57,2.65.18-.28.34-.54.51-.79Z"/><path d="M552.17,344.11s0,0,0,0c-.09.17-.19.33-.3.48-.02.02-.04.05-.06.07-.51.81-.9,1.45-1.12,1.83-1.79,3.15-3.32,4.21-2.38,5.36,1.52.27,2.47-.8,4.4-3.72.96-1.46,2.86-1.95,4.53-2.17-1.43-1.04-2.99-1.9-4.57-2.65-.18.28-.34.54-.51.79Z"/></g></svg>